#!OML:ASF G:\JayActor3\Patient Classification 1\Patient 1\Session 6\male.ASF
:FULLY-SPECIFIED
:DEGREES
1745
root 3.27464 16.5303 -8.84694 190.57 -78.5926 -190.396
lowerback 4.21907 -1.07838 5.00417
upperback 3.82245 -1.57924 4.68898
thorax 1.58883 -0.841131 2.07213
lowerneck -3.40913 -1.16821 6.58796
upperneck -5.83011 -2.2405 -8.91893
head -1.47019 -1.22842 -4.11798
rclavicle 1.59028e-015 -8.26944e-014
rhumerus -29.3368 -7.03891 -73.2643
rradius 34.4912
rwrist -0.036957
rhand -14.8221 -8.01215
rfingers 7.12502
rthumb 11.3363 -37.6858
lclavicle 1.59028e-015 -8.26944e-014
lhumerus -37.1461 14.7283 83.5937
lradius 26.0946
lwrist 16.3169
lhand -15.2844 11.8987
lfingers 7.12502
lthumb 10.8904 41.5963
rfemur -12.317 -5.40491 23.2855
rtibia 36.185
rfoot -32.9064 -22.0453
rtoes 11.7793
lfemur -13.6729 20.0506 -15.7244
ltibia 38.9607
lfoot -15.7511 14.9065
ltoes -10.762
1746
root 3.26771 16.5278 -8.83997 190.648 -78.8155 -190.509
lowerback 4.1649 -1.07119 4.9606
upperback 3.78862 -1.56964 4.67951
thorax 1.58443 -0.836026 2.08531
lowerneck -3.40074 -1.2263 6.5296
upperneck -5.79745 -2.3107 -8.85817
head -1.4651 -1.26201 -4.08393
rclavicle -4.77083e-015 7.95139e-015
rhumerus -29.4323 -7.06893 -73.3258
rradius 34.4936
rwrist -0.0175589
rhand -14.8425 -8.14154
rfingers 7.12502
rthumb 11.3166 -37.8162
lclavicle -4.77083e-015 7.95139e-015
lhumerus -37.2392 14.7989 83.5493
lradius 26.1281
lwrist 16.3317
lhand -15.264 11.8931
lfingers 7.12502
lthumb 10.9101 41.5896
rfemur -12.2508 -5.39219 23.2803
rtibia 36.2082
rfoot -33.0586 -22.1549
rtoes 11.8222
lfemur -13.5381 20.4912 -15.8277
ltibia 38.96
lfoot -15.8969 15.4854
ltoes -10.0712
1747
root 3.26023 16.5252 -8.8319 190.718 -79.0169 -190.617
lowerback 4.10749 -1.06174 4.91583
upperback 3.75848 -1.55749 4.66569
thorax 1.58554 -0.829493 2.09449
lowerneck -3.38974 -1.28057 6.47018
upperneck -5.76788 -2.37611 -8.80109
head -1.46103 -1.29315 -4.05105
rclavicle -1.63003e-014 -1.11319e-014
rhumerus -29.5189 -7.09266 -73.3908
rradius 34.4774
rwrist 0.00345635
rhand -14.8596 -8.24095
rfingers 7.12502
rthumb 11.3002 -37.9165
lclavicle -1.63003e-014 -1.11319e-014
lhumerus -37.3247 14.8777 83.5016
lradius 26.1716
lwrist 16.3513
lhand -15.2607 11.8888
lfingers 7.12502
lthumb 10.9133 41.5852
rfemur -12.1859 -5.37394 23.2681
rtibia 36.2413
rfoot -33.205 -22.2579
rtoes 11.8542
lfemur -13.3731 20.9105 -15.9266
ltibia 38.9186
lfoot -16.0131 16.0057
ltoes -9.17252
1748
root 3.25216 16.5225 -8.82287 190.768 -79.1962 -190.705
lowerback 4.04654 -1.05012 4.87124
upperback 3.72985 -1.54267 4.64743
thorax 1.59006 -0.821458 2.09883
lowerneck -3.37323 -1.33019 6.41516
upperneck -5.74249 -2.43565 -8.74911
head -1.45891 -1.3213 -4.02093
rclavicle -6.52014e-014 4.13472e-014
rhumerus -29.5968 -7.11197 -73.4599
rradius 34.4359
rwrist 0.0250867
rhand -14.8691 -8.28841
rfingers 7.12502
rthumb 11.291 -37.9645
lclavicle -6.52014e-014 4.13472e-014
lhumerus -37.4054 14.9618 83.4481
lradius 26.2243
lwrist 16.3782
lhand -15.2713 11.8927
lfingers 7.12502
lthumb 10.9031 41.5897
rfemur -12.123 -5.34806 23.2526
rtibia 36.2812
rfoot -33.3471 -22.3516
rtoes 11.8749
lfemur -13.1801 21.3023 -16.0199
ltibia 38.8326
lfoot -16.0906 16.4794
ltoes -8.08346
1749
root 3.24341 16.5196 -8.81281 190.814 -79.3536 -190.791
lowerback 3.97848 -1.03726 4.82308
upperback 3.7053 -1.52703 4.62523
thorax 1.60275 -0.812893 2.10088
lowerneck -3.36818 -1.37361 6.36306
upperneck -5.70944 -2.48742 -8.70424
head -1.45167 -1.34591 -3.99406
rclavicle -1.35174e-014 3.81667e-014
rhumerus -29.6622 -7.12846 -73.5313
rradius 34.3754
rwrist 0.0485726
rhand -14.8659 -8.29988
rfingers 7.12502
rthumb 11.2941 -37.9758
lclavicle -1.35174e-014 3.81667e-014
lhumerus -37.4761 15.0549 83.392
lradius 26.2843
lwrist 16.4083
lhand -15.2908 11.9109
lfingers 7.12502
lthumb 10.8842 41.6088
rfemur -12.0635 -5.32297 23.2282
rtibia 36.3281
rfoot -33.4751 -22.4348
rtoes 11.8747
lfemur -12.9597 21.6613 -16.1145
ltibia 38.6952
lfoot -16.1374 16.9174
ltoes -6.95014
1750
root 3.23401 16.5166 -8.80176 190.815 -79.4912 -190.828
lowerback 3.90407 -1.02306 4.77997
upperback 3.6825 -1.51008 4.60098
thorax 1.62063 -0.803471 2.09783
lowerneck -3.36554 -1.41221 6.31221
upperneck -5.67466 -2.53294 -8.66266
head -1.44292 -1.3675 -3.96868
rclavicle 2.5842e-014 6.36111e-014
rhumerus -29.7192 -7.14315 -73.6061
rradius 34.3008
rwrist 0.0718813
rhand -14.8571 -8.28485
rfingers 7.12502
rthumb 11.3026 -37.9603
lclavicle 2.5842e-014 6.36111e-014
lhumerus -37.5382 15.1541 83.3323
lradius 26.348
lwrist 16.4401
lhand -15.3117 11.9394
lfingers 7.12502
lthumb 10.8641 41.6384
rfemur -12.0097 -5.29709 23.205
rtibia 36.3815
rfoot -33.5867 -22.5141
rtoes 11.8457
lfemur -12.7163 21.9831 -16.2035
ltibia 38.4999
lfoot -16.1697 17.319
ltoes -5.94444
1751
root 3.22402 16.5133 -8.78974 190.787 -79.6097 -190.832
lowerback 3.82391 -1.00791 4.74004
upperback 3.65999 -1.49209 4.57345
thorax 1.64187 -0.79334 2.08951
lowerneck -3.3728 -1.44623 6.26454
upperneck -5.6321 -2.57256 -8.62527
head -1.42946 -1.38644 -3.94554
rclavicle 1.15295e-014 2.54444e-014
rhumerus -29.7695 -7.15238 -73.6873
rradius 34.2195
rwrist 0.095914
rhand -14.8633 -8.25735
rfingers 7.12502
rthumb 11.2966 -37.9331
lclavicle 1.15295e-014 2.54444e-014
lhumerus -37.5916 15.2509 83.2722
lradius 26.4163
lwrist 16.4785
lhand -15.3335 11.9808
lfingers 7.12502
lthumb 10.8431 41.6809
rfemur -11.9651 -5.26911 23.1798
rtibia 36.443
rfoot -33.6853 -22.5867
rtoes 11.8083
lfemur -12.4551 22.2643 -16.2935
ltibia 38.2397
lfoot -16.2229 17.6612
ltoes -5.17006
1752
root 3.21341 16.5099 -8.77674 190.747 -79.7089 -190.821
lowerback 3.74107 -0.992302 4.69906
upperback 3.63607 -1.47336 4.54241
thorax 1.66309 -0.78275 2.07812
lowerneck -3.37873 -1.47743 6.21045
upperneck -5.58464 -2.60756 -8.58305
head -1.41399 -1.40293 -3.91944
rclavicle 3.57812e-015 2.54444e-014
rhumerus -29.8181 -7.16158 -73.7712
rradius 34.1339
rwrist 0.127859
rhand -14.8764 -8.21943
rfingers 7.12502
rthumb 11.284 -37.8959
lclavicle 3.57812e-015 2.54444e-014
lhumerus -37.6405 15.3426 83.2131
lradius 26.486
lwrist 16.5246
lhand -15.3597 12.0152
lfingers 7.12502
lthumb 10.8178 41.7166
rfemur -11.9274 -5.239 23.1484
rtibia 36.5129
rfoot -33.7717 -22.6521
rtoes 11.7562
lfemur -12.1764 22.5057 -16.3882
ltibia 37.9099
lfoot -16.3067 17.917
ltoes -4.66604
1753
root 3.2023 16.5061 -8.76272 190.684 -79.7902 -190.786
lowerback 3.65728 -0.975715 4.66002
upperback 3.61045 -1.45297 4.50783
thorax 1.68292 -0.771214 2.06199
lowerneck -3.37865 -1.50663 6.15103
upperneck -5.53562 -2.63898 -8.53534
head -1.39856 -1.41741 -3.89034
rclavicle -4.41302e-014 -4.92986e-014
rhumerus -29.8704 -7.18158 -73.8545
rradius 34.0505
rwrist 0.173333
rhand -14.8745 -8.19513
rfingers 7.12502
rthumb 11.2858 -37.8715
lclavicle -4.41302e-014 -4.92986e-014
lhumerus -37.6873 15.4233 83.1562
lradius 26.5598
lwrist 16.5784
lhand -15.3844 12.0404
lfingers 7.12502
lthumb 10.794 41.7431
rfemur -11.8961 -5.20131 23.114
rtibia 36.5921
rfoot -33.8541 -22.7114
rtoes 11.7028
lfemur -11.8822 22.7079 -16.4852
ltibia 37.5094
lfoot -16.4451 18.072
ltoes -4.36807
1754
root 3.19073 16.5021 -8.74791 190.596 -79.8541 -190.725
lowerback 3.57543 -0.958958 4.61999
upperback 3.581 -1.43168 4.47055
thorax 1.69764 -0.759223 2.04372
lowerneck -3.36191 -1.53368 6.08984
upperneck -5.49043 -2.66668 -8.48477
head -1.38694 -1.42956 -3.85982
rclavicle -3.49861e-014 1.28812e-013
rhumerus -29.925 -7.21056 -73.9367
rradius 33.9618
rwrist 0.23755
rhand -14.8644 -8.18575
rfingers 7.12502
rthumb 11.2956 -37.8616
lclavicle -3.49861e-014 1.28812e-013
lhumerus -37.7367 15.4912 83.1008
lradius 26.6369
lwrist 16.6415
lhand -15.4109 12.059
lfingers 7.12502
lthumb 10.7685 41.763
rfemur -11.8693 -5.15213 23.0785
rtibia 36.6792
rfoot -33.9347 -22.7745
rtoes 11.6476
lfemur -11.5759 22.8729 -16.5837
ltibia 37.0442
lfoot -16.617 18.1617
ltoes -4.21539
1755
root 3.17867 16.4977 -8.7321 190.498 -79.9035 -190.659
lowerback 3.49446 -0.942637 4.579
upperback 3.55197 -1.41079 4.43014
thorax 1.71226 -0.74739 2.02283
lowerneck -3.33539 -1.55773 6.02321
upperneck -5.44799 -2.68965 -8.42872
head -1.37734 -1.43905 -3.82629
rclavicle -7.55382e-015 3.02153e-014
rhumerus -29.9758 -7.24885 -74.0165
rradius 33.8669
rwrist 0.312675
rhand -14.8464 -8.18423
rfingers 7.12502
rthumb 11.3129 -37.8591
lclavicle -7.55382e-015 3.02153e-014
lhumerus -37.7824 15.5534 83.0477
lradius 26.7148
lwrist 16.7034
lhand -15.4309 12.0736
lfingers 7.12502
lthumb 10.7492 41.7786
rfemur -11.8421 -5.10124 23.0366
rtibia 36.773
rfoot -34.0094 -22.8373
rtoes 11.5912
lfemur -11.2539 23.0001 -16.6864
ltibia 36.5256
lfoot -16.8166 18.2221
ltoes -4.06285
1756
root 3.16652 16.4933 -8.71556 190.338 -79.9379 -190.531
lowerback 3.42092 -0.926247 4.54204
upperback 3.51928 -1.38891 4.39069
thorax 1.7189 -0.735148 2.00088
lowerneck -3.29874 -1.57815 5.95935
upperneck -5.40453 -2.70736 -8.37624
head -1.36889 -1.44567 -3.79456
rclavicle -4.01545e-014 6.36111e-014
rhumerus -30.0246 -7.29472 -74.0924
rradius 33.7619
rwrist 0.399628
rhand -14.8217 -8.17777
rfingers 7.12502
rthumb 11.3367 -37.8514
lclavicle -4.01545e-014 6.36111e-014
lhumerus -37.8277 15.6119 82.9953
lradius 26.7895
lwrist 16.7652
lhand -15.451 12.0776
lfingers 7.12502
lthumb 10.7297 41.7836
rfemur -11.8168 -5.0385 23.0024
rtibia 36.8705
rfoot -34.0822 -22.9073
rtoes 11.5284
lfemur -10.9222 23.089 -16.7841
ltibia 35.9712
lfoot -17.0197 18.3089
ltoes -3.83916
1757
root 3.15428 16.4889 -8.69836 190.196 -79.9586 -190.422
lowerback 3.34551 -0.910858 4.49445
upperback 3.48929 -1.36883 4.34996
thorax 1.72956 -0.723958 1.98358
lowerneck -3.26508 -1.59281 5.90047
upperneck -5.36025 -2.71805 -8.33186
head -1.35931 -1.44898 -3.76678
rclavicle -5.28767e-014 2.54444e-014
rhumerus -30.0599 -7.34877 -74.1645
rradius 33.6501
rwrist 0.494226
rhand -14.7934 -8.1627
rfingers 7.12502
rthumb 11.364 -37.8348
lclavicle -5.28767e-014 2.54444e-014
lhumerus -37.8601 15.6768 82.945
lradius 26.8575
lwrist 16.8168
lhand -15.4704 12.0851
lfingers 7.12502
lthumb 10.711 41.792
rfemur -11.7931 -4.97229 22.9597
rtibia 36.9689
rfoot -34.1509 -22.9747
rtoes 11.4679
lfemur -10.5823 23.1435 -16.8932
ltibia 35.3994
lfoot -17.2183 18.4556
ltoes -3.57035
1758
root 3.14225 16.4847 -8.68056 190.038 -79.9691 -190.297
lowerback 3.27066 -0.897079 4.44192
upperback 3.46114 -1.3511 4.30954
thorax 1.74195 -0.714071 1.96943
lowerneck -3.23495 -1.60202 5.84971
upperneck -5.31384 -2.72214 -8.29692
head -1.34823 -1.44921 -3.74404
rclavicle 4.05521e-014 1.27222e-014
rhumerus -30.0891 -7.41421 -74.2333
rradius 33.5441
rwrist 0.591875
rhand -14.7657 -8.16439
rfingers 7.12502
rthumb 11.3908 -37.835
lclavicle 4.05521e-014 1.27222e-014
lhumerus -37.8763 15.7472 82.8956
lradius 26.9093
lwrist 16.859
lhand -15.4902 12.0782
lfingers 7.12502
lthumb 10.6919 41.7861
rfemur -11.7709 -4.8992 22.9175
rtibia 37.0659
rfoot -34.2158 -23.0448
rtoes 11.4013
lfemur -10.2344 23.1623 -17.0053
ltibia 34.827
lfoot -17.4371 18.6541
ltoes -3.23129
